<?xml version="1.0" standalone="no"?>
<!DOCTYPE svg PUBLIC "-//W3C//DTD SVG 20010904//EN"
 "http://www.w3.org/TR/2001/REC-SVG-20010904/DTD/svg10.dtd">
<svg version="1.0" xmlns="http://www.w3.org/2000/svg"
 width="50.000000pt" height="50.000000pt" viewBox="0 0 50.000000 50.000000"
 preserveAspectRatio="xMidYMid meet">

<g transform="translate(0.000000,50.000000) scale(0.100000,-0.100000)"
fill="#000000" stroke="none">
<path d="M232 351 c-12 -34 -15 -36 -43 -21 -17 10 -19 7 -19 -24 0 -32 -4
-36 -32 -44 l-33 -8 30 -31 c17 -16 36 -32 44 -34 11 -4 12 -9 2 -28 -17 -31
-6 -39 16 -12 l18 21 42 -21 c43 -21 66 -19 57 5 -4 9 7 18 31 26 29 10 34 15
24 26 -9 11 -5 20 15 45 28 33 27 49 -4 49 -15 0 -17 6 -13 40 7 47 -8 53 -51
19 l-27 -21 -23 21 -24 22 -10 -30z m38 -63 c0 -20 -4 -39 -9 -42 -18 -11 -28
53 -15 89 10 25 24 -2 24 -47z m80 50 c0 -14 -30 -48 -42 -48 -5 0 -2 14 7 30
16 30 35 40 35 18z m-132 -68 c12 -33 -1 -41 -18 -11 -12 24 -13 54 -1 47 5
-3 14 -19 19 -36z m142 -15 c-22 -24 -70 -35 -70 -16 0 10 59 40 79 41 10 0 7
-8 -9 -25z m-160 -26 c11 -6 8 -8 -11 -9 -15 0 -33 7 -40 16 -12 15 -11 16 11
9 14 -4 32 -11 40 -16z m82 -41 c21 -21 21 -23 5 -26 -18 -4 -57 23 -57 40 0
16 30 8 52 -14z m73 12 c4 -6 -6 -10 -24 -10 -16 0 -33 5 -36 10 -4 6 6 10 24
10 16 0 33 -4 36 -10z"/>
</g>
</svg>
